<?xml version="1.0" encoding="utf-8"?>
<!-- Generator: Adobe Illustrator 27.9.0, SVG Export Plug-In . SVG Version: 6.00 Build 0)  -->
<svg version="1.1" id="Layer_1" xmlns="http://www.w3.org/2000/svg"
	xmlns:xlink="http://www.w3.org/1999/xlink" x="0px" y="0px"
	viewBox="0 0 1530.5 684.9" style="enable-background:new 0 0 1530.5 684.9;" xml:space="preserve">
<style type="text/css">
	.st0{display:none;fill:#333335;}
	.st1{fill:#1F2636;}
	.st2{fill:none;}
	.st3{fill:#DF5538;}
</style>
<g>
	<g>
		<polygon class="st1" points="1231.2,353.5 1199.7,353.5 1200.5,423.3 1200.5,485.7 1128.8,354 1128.8,353.4 1098.9,353.4
			1098.9,550.1 1129.2,550.1 1129.2,423.3 1129.2,419.2 1136.7,432.7 1200.5,550 1200.5,550.1 1200.6,550.1 1200.6,550.1
			1200.6,550.1 1231.2,550.1 		"/>
		<polygon class="st1" points="797.9,549 851.3,353.8 886.2,353.8 940.2,550.1 906.4,550.1 869.3,398 830.1,549 		"/>
		<polygon class="st1" points="1251.4,548.5 1304.8,353.3 1339.7,353.3 1393.7,549.6 1359.9,549.6 1322.8,397.4 1283.5,548.5 		"/>
		<path class="st1" d="M653.6,352.7v196.9h30V382.7h27.3c0,0,26.2-2.7,27.3,26.7c1.1,29.4-23,29.9-23,29.9v48.5l27.9,62.3h36.5
			l-42-87.8c0,0,28.3-9.8,30-40.4c1.2-22.5,1.4-45.3-17-59.6c-5.9-4.6-13.5-9.1-24.4-9.1C703.7,353.3,653.6,352.7,653.6,352.7z"/>
		<path class="st1" d="M1071.8,416.8h-30.3c0,0,2.9-31.1-17.6-35.2c-20.5-4.1-33.5,9.4-33.5,22.5c0,13.1,0,88.7,0,88.7
			s-1.2,27,24.9,27c26.2,0,26.2-26.6,26.2-30.7c0-4.1,0-18.4,0-18.4h-19.6v-26.2h49.5V492c0,0,5.7,58.1-53.6,58.1
			c-59.3,0-58.9-54.4-58.9-54.4v-89.6c0,0-2-54.8,48.7-55.2c12.3-0.1,18.8,0,18.8,0c10.2,0.8,44.2,4.9,45.4,50.3
			C1072.2,417.2,1071.8,416.8,1071.8,416.8z"/>
	</g>
	<g>
		<path class="st2" d="M335.7,533.8c0.8,0.9,1.7,1.8,2.5,2.7c-0.8-0.9-1.6-1.9-2.4-3C335.8,533.6,335.8,533.7,335.7,533.8z"/>
		<g>
			<path class="st2" d="M377.9,173.2c1.3,4.4,2.6,8.9,4,13.3c1,3.3,2.9,6.3,6,8.5c2.9,2,6.5,3.1,10.1,2.5c5.7-0.9,11.3-2.1,16.9-3.3
				c2.9-0.6,5.7-1.3,8.6-1.9c1.1-0.3,2.6-0.4,3.7-0.9c0.6-0.3,0.9-0.8,1-1.3c0-0.6-0.2-1.1-0.7-1.4c-0.9-0.7-2.1-1.1-3.2-1.6
				c-2.3-1.2-4.6-2.3-6.8-3.5c-4.6-2.4-9.2-4.7-13.8-7.1c-4.6-2.3-9.1-4.7-13.7-7c-2.3-1.2-4.6-2.4-6.9-3.5
				c-1.1-0.6-2.2-1.1-3.3-1.7c-0.8-0.4-1.7-1.1-2.6-1c-0.7,0.1-1.3,0.5-1.6,1.1c-0.3,0.7,0.2,1.6,0.4,2.3
				C376.6,168.8,377.2,171,377.9,173.2z"/>
			<path class="st1" d="M329.8,385.1c0,1.2,0,2.4,0,3.5c0,3.3,0,6.6,0,9.8c0,0.1,0,0.3,0,0.4c0,2.8,1.2,5.8,3.2,7.8
				c1.9,1.9,5.1,3.4,7.8,3.2c6-0.3,11.1-4.9,11.1-11.1c0-2.3,0-4.5,0-6.8c0-2.4,0-4.7,0-7.1C344.8,385,337.4,385,329.8,385.1z"/>
			<path class="st1" d="M352,159.2c0-1,0-2.1,0-3.1c0-3.3,0-6.6,0-9.8c0-0.1,0-0.3,0-0.4c0-2.8-1.2-5.8-3.2-7.8
				c-1.9-1.9-5.1-3.4-7.8-3.2c-6,0.3-11.1,4.9-11.1,11.1c0,2.3,0,4.5,0,6.8c0,2.2,0,4.4,0,6.7C337.9,159.2,345.5,159.2,352,159.2z"
				/>
			<path class="st3" d="M433.3,189.8c-2.8-4.1-54.5-30.8-59.8-30.7c-1.8,0-10,0-21.5,0.1c-6.5,0-14.1,0.1-22.2,0.1
				c-29,0.1-65,0.3-84.1,0.3c-4.5,0-9.3-0.3-11.6,4.4c-2.4,5.2,1.6,7.9,5,11.2c48.5,47.6,59.4,100.6,32.4,158.7
				c-6.2,13.4-15.9,25.2-27.1,35.8c-3.4,3.2-7.2,6.2-4.5,11.2c2.7,5,8,4.3,12.9,4.3c5.1,0,41.5-0.1,77-0.2c7.5,0,15,0,22.2-0.1
				c25.5-0.1,46.4-0.1,48.8-0.1c6.2,0.1,10.5-1.9,14.6-5.7C478.2,321.2,445,206.7,433.3,189.8z M443.7,262c0.1,2.7-2.3,4.9-4.9,4.9
				c-0.1,0-0.2,0-0.2,0c-1.8,0-3.7,0-5.5,0c-3.9,0-7.8,0-11.8,0c-5.5,0-10.9,0-16.4,0c-6.4,0-12.8,0-19.3,0c-6.9,0-13.8,0-20.7,0
				c-6.9,0-13.7,0-20.6,0c-6.2,0-12.4,0-18.7,0c-5.1,0-10.3,0-15.4,0c-3.4,0-6.9,0-10.3,0c-1.3,0-2.6,0-3.8,0
				c-2.8,0-4.8-2.3-4.9-4.9c-0.1-2.7,2.3-4.9,4.9-4.9c0.1,0,0.2,0,0.2,0c1.8,0,3.7,0,5.5,0c3.9,0,7.8,0,11.8,0c5.5,0,10.9,0,16.4,0
				c6.4,0,12.8,0,19.3,0c6.9,0,13.8,0,20.7,0c6.9,0,13.7,0,20.6,0c6.2,0,12.4,0,18.7,0c5.1,0,10.3,0,15.4,0c3.4,0,6.9,0,10.3,0
				c1.3,0,2.6,0,3.8,0C441.5,257.1,443.6,259.4,443.7,262z M375.6,164.3c0.2-0.6,0.9-1,1.6-1.1c0.9-0.1,1.8,0.6,2.6,1
				c1.1,0.6,2.2,1.1,3.3,1.7c2.3,1.2,4.6,2.4,6.9,3.5c4.6,2.3,9.1,4.7,13.7,7c4.6,2.4,9.2,4.7,13.8,7.1c2.3,1.2,4.6,2.3,6.8,3.5
				c1,0.5,2.3,1,3.2,1.6c0.5,0.4,0.8,0.9,0.7,1.4c0,0.6-0.4,1-1,1.3c-1,0.5-2.5,0.6-3.7,0.9c-2.9,0.6-5.7,1.3-8.6,1.9
				c-5.6,1.2-11.2,2.4-16.9,3.3c-3.6,0.6-7.3-0.5-10.1-2.5c-3.1-2.2-4.9-5.2-6-8.5c-1.4-4.4-2.7-8.9-4-13.3
				c-0.6-2.2-1.3-4.4-1.9-6.5C375.7,165.9,375.3,165,375.6,164.3z M293.6,229.6c0.1,0,0.2,0,0.2,0c1.8,0,3.7,0,5.5,0
				c3.9,0,7.8,0,11.8,0c5.5,0,10.9,0,16.4,0c6.4,0,12.8,0,19.3,0c6.9,0,13.8,0,20.7,0c6.9,0,13.7,0,20.6,0c6.2,0,12.4,0,18.7,0
				c5.1,0,10.3,0,15.4,0c3.4,0,6.9,0,10.3,0c1.3,0,2.6,0,3.8,0c2.8,0,4.8,2.3,4.9,4.9c0.1,2.7-2.3,4.9-4.9,4.9c-0.1,0-0.2,0-0.2,0
				c-1.8,0-3.7,0-5.5,0c-3.9,0-7.8,0-11.8,0c-5.5,0-10.9,0-16.4,0c-6.4,0-12.8,0-19.3,0c-6.9,0-13.8,0-20.7,0c-6.9,0-13.7,0-20.6,0
				c-6.2,0-12.4,0-18.7,0c-5.1,0-10.3,0-15.4,0c-3.4,0-6.9,0-10.3,0c-1.3,0-2.6,0-3.8,0c-2.8,0-4.8-2.3-4.9-4.9
				C288.6,231.9,291.1,229.6,293.6,229.6z M349.1,321.9c-2.3,0-4.6,0-6.8,0c-10,0-19.9,0-29.9,0c-6.3,0-12.5,0-18.8,0
				c-2.8,0-4.8-2.3-4.9-4.9c-0.1-2.7,2.3-4.9,4.9-4.9c2.3,0,4.6,0,6.8,0c10,0,19.9,0,29.9,0c6.3,0,12.5,0,18.8,0
				c2.8,0,4.8,2.3,4.9,4.9C354.2,319.6,351.7,321.9,349.1,321.9z M438.8,294.4c-0.1,0-0.2,0-0.2,0c-1.8,0-3.7,0-5.5,0
				c-3.9,0-7.8,0-11.8,0c-5.5,0-10.9,0-16.4,0c-6.4,0-12.8,0-19.3,0c-6.9,0-13.8,0-20.7,0c-6.9,0-13.7,0-20.6,0
				c-6.2,0-12.4,0-18.7,0c-5.1,0-10.3,0-15.4,0c-3.4,0-6.9,0-10.3,0c-1.3,0-2.6,0-3.8,0c-2.8,0-4.8-2.3-4.9-4.9
				c-0.1-2.7,2.3-4.9,4.9-4.9c0.1,0,0.2,0,0.2,0c1.8,0,3.7,0,5.5,0c3.9,0,7.8,0,11.8,0c5.5,0,10.9,0,16.4,0c6.4,0,12.8,0,19.3,0
				c6.9,0,13.8,0,20.7,0c6.9,0,13.7,0,20.6,0c6.2,0,12.4,0,18.7,0c5.1,0,10.3,0,15.4,0c3.4,0,6.9,0,10.3,0c1.3,0,2.6,0,3.8,0
				c2.8,0,4.8,2.3,4.9,4.9C443.8,292.2,441.4,294.4,438.8,294.4z"/>
		</g>
		<g>
			<g>
				<path class="st1" d="M259.4,421.2c-19.2-0.5-34.7,14.7-35,34.5c-0.3,19.4,14.4,34.9,33.4,35.3c18.7,0.4,34.5-15.1,34.7-34.1
					C292.7,437.5,278,421.7,259.4,421.2z M258.1,475c-10.3-0.2-18.3-8.6-18.1-19.2c0.2-10.7,8.5-19,19-18.7
					c10.1,0.3,18.1,8.9,17.9,19.4C276.8,466.8,268.3,475.2,258.1,475z"/>
				<path class="st1" d="M343.1,421.2c-19.2-0.5-34.7,14.7-35,34.5c-0.3,19.4,14.4,34.9,33.4,35.3c18.7,0.4,34.5-15.1,34.7-34.1
					C376.4,437.5,361.8,421.7,343.1,421.2z M341.9,475c-10.3-0.2-18.3-8.6-18.1-19.2c0.2-10.7,8.5-19,19-18.7
					c10.1,0.3,18.1,8.9,17.9,19.4C360.6,466.8,352,475.2,341.9,475z"/>
				<path class="st1" d="M428.9,421.2c-19.2-0.5-34.7,14.7-35,34.5c-0.3,19.4,14.4,34.9,33.4,35.3c18.7,0.4,34.5-15.1,34.7-34.1
					C462.2,437.5,447.6,421.7,428.9,421.2z M427.6,475c-10.3-0.2-18.3-8.6-18.1-19.2c0.2-10.7,8.5-19,19-18.7
					c10.1,0.3,18.1,8.9,17.9,19.4C446.4,466.8,437.8,475.2,427.6,475z"/>
			</g>
		</g>
		<path class="st1" d="M516.7,309.1c6.9,0.3,24.5,7.7,27.4,6.3c3.7-1.9,8.9-3.8,8.2-8.5c-0.6-3.9-0.1-10.9-4.5-11.1
			c-12.1-0.7-23.8-10-32.5-17.4c-7.6-6.6-11.9-11-18.5-14.1c-3.9-1.8-7.6-4-11.9-4.6c-2.2-0.3-4.2,0-6.1,1.6c0.6,0.3,1,0.5,1.5,0.8
			c3,1.8,4.9,4.3,5.6,7.8c0.2,1.2-26.2,15.7-7.4,94.1c1.8,12.4,2.7,27.4,2.3,37.1c-0.2,4.5-0.3,9.3-0.7,13.9
			c-1,10-7.2,16.4-7.5,16.8c-3.7,4.4-4.8,8-3.1,13.8c6.1,21.7-5.7,44.5-26.5,52.7c-20.3,8-43-0.7-53.8-20.6c-1.1-2-1.2-5-4.1-5.9
			c-17.2,39.1-66.5,39.5-84.2-1.7c-4.3,10.7-9.7,19-18.5,24.5c-15.7,10-34.7,9.4-49.1-1.3c-14.8-11-21.5-30.9-16.3-48.7
			c1-3.5,2.1-6.5-0.3-10.1c-10.6-16.4-20.9-32.9-31.1-49.5c-2.8-4.5-4.5-4.5-7.5-0.4c-7.4,10.1-15.4,19.9-21.6,30.9
			c-13,22.9-21.1,46.2-19.2,70.1c0,0,0,0,0,0c-0.1,0-0.2-0.1-0.3-0.1c0.7,11,3.5,22.1,8.7,33.3c0,0,0,0,0,0c0,0,0,0,0,0
			c0.9,2,1.9,4,3,6c2.6,5.6,4.5,11.1,4.8,17.5c0.4,7.7,0,7.7,7.7,7.7c7.2,0,360.8-0.5,360.8-0.5c4.7-0.1,4.5-1.1,4.8-7.7
			c0.3-5.7,1.8-10.7,3.9-15.6c1.2-3.1,2.1-5.3,2.7-6.9c17.1-38.7,12.2-72.3,7.5-87.3c0,0,0,0,0,0c0-0.1-0.1-0.3-0.1-0.4c0,0,0,0,0,0
			c-4.6-13.3-25.5-45.3-32.9-62c-4.1-10.6-7.5-21.5-10.5-32.5c-3.8-14,8.1-20.8,20.2-6.9c4.7,5.3,6.2,3.5,9.6,1.6
			c2.8-1.5,6-3.2,7.2-6.8C524.7,325.4,513.8,309,516.7,309.1z"/>
	</g>
</g>
</svg>
