<?xml version="1.0" encoding="utf-8"?>
<!-- Generator: Adobe Illustrator 27.9.0, SVG Export Plug-In . SVG Version: 6.00 Build 0)  -->
<svg version="1.1" id="Layer_1" xmlns="http://www.w3.org/2000/svg"
	xmlns:xlink="http://www.w3.org/1999/xlink" x="0px" y="0px"
	viewBox="0 0 916 916" style="enable-background:new 0 0 916 916;" xml:space="preserve">
<style type="text/css">
	.st0{display:none;fill:#333335;}
	.st1{fill:#1F2636;}
	.st2{fill:none;}
	.st3{fill:#DF5538;}
</style>
<g>
	<polygon class="st1" points="593.1,692.6 571.6,692.6 572.1,740.3 572.1,783 523.1,692.9 523.1,692.5 502.7,692.5 502.7,827
		523.4,827 523.4,740.3 523.4,737.5 528.5,746.8 572.1,826.9 572.1,827 572.2,827 572.2,827 572.2,827 593.1,827 	"/>
	<polygon class="st1" points="296.9,826.3 333.4,692.8 357.3,692.8 394.2,827 371.1,827 345.7,723 318.9,826.3 	"/>
	<polygon class="st1" points="606.9,825.9 643.4,692.4 667.3,692.4 704.2,826.6 681.1,826.6 655.7,722.6 628.9,825.9 	"/>
	<path class="st1" d="M198.2,692.1v134.6h20.5V712.6h18.6c0,0,17.9-1.9,18.6,18.3c0.8,20.1-15.7,20.4-15.7,20.4v33.2l19.1,42.6h25
		l-28.7-60c0,0,19.4-6.7,20.5-27.6c0.8-15.4,0.9-30.9-11.6-40.7c-4.1-3.1-9.2-6.2-16.7-6.2C232.5,692.4,198.2,692.1,198.2,692.1z"/>
	<path class="st1" d="M484.2,735.9h-20.7c0,0,2-21.2-12-24c-14-2.8-22.9,6.4-22.9,15.4c0,8.9,0,60.7,0,60.7s-0.8,18.5,17.1,18.5
		c17.9,0,17.9-18.2,17.9-21c0-2.8,0-12.6,0-12.6H450v-17.9h33.8v32.4c0,0,3.9,39.7-36.6,39.7c-40.5,0-40.3-37.2-40.3-37.2v-61.2
		c0,0-1.4-37.5,33.3-37.8c8.4-0.1,12.9,0,12.9,0c7,0.6,30.2,3.4,31,34.4C484.4,736.2,484.2,735.9,484.2,735.9z"/>
</g>
<g>
	<path class="st2" d="M440.4,567.1c1,1.1,2,2.2,3.1,3.2c-1-1.1-2-2.4-2.9-3.7C440.5,566.8,440.5,566.9,440.4,567.1z"/>
	<g>
		<path class="st2" d="M491.8,127.8c1.6,5.4,3.2,10.8,4.9,16.2c1.3,4,3.5,7.7,7.3,10.4c3.5,2.5,7.9,3.8,12.4,3.1
			c6.9-1.1,13.8-2.5,20.6-4c3.5-0.8,7-1.5,10.5-2.3c1.4-0.3,3.2-0.5,4.5-1.1c0.7-0.3,1.1-0.9,1.2-1.6c0.1-0.7-0.3-1.3-0.9-1.8
			c-1.1-0.8-2.6-1.4-3.8-2c-2.8-1.4-5.6-2.9-8.3-4.3c-5.6-2.9-11.2-5.8-16.8-8.6c-5.6-2.9-11.1-5.7-16.7-8.6
			c-2.8-1.4-5.6-2.9-8.4-4.3c-1.4-0.7-2.7-1.4-4.1-2.1c-0.9-0.5-2-1.3-3.2-1.2c-0.9,0.1-1.6,0.6-1.9,1.4c-0.3,0.9,0.2,2,0.5,2.9
			C490.2,122.5,491,125.1,491.8,127.8z"/>
		<path class="st1" d="M433.2,385.9c0,1.4,0,2.9,0,4.3c0,4,0,8,0,12c0,0.2,0,0.3,0,0.5c0,3.5,1.5,7.1,4,9.5c2.3,2.3,6.2,4.1,9.5,4
			c7.3-0.3,13.5-5.9,13.5-13.5c0-2.8,0-5.5,0-8.3c0-2.9,0-5.7,0-8.6C451.5,385.8,442.4,385.8,433.2,385.9z"/>
		<path class="st1" d="M460.2,110.8c0-1.3,0-2.5,0-3.8c0-4,0-8,0-12c0-0.2,0-0.3,0-0.5c0-3.5-1.5-7.1-4-9.5c-2.3-2.3-6.2-4.1-9.5-4
			c-7.3,0.3-13.5,5.9-13.5,13.5c0,2.8,0,5.5,0,8.3c0,2.7,0,5.4,0,8.1C443.1,110.8,452.3,110.8,460.2,110.8z"/>
		<path class="st3" d="M559.3,148.1c-3.4-4.9-66.4-37.5-72.8-37.4c-2.2,0-12.2,0.1-26.2,0.1c-7.9,0-17.1,0.1-27,0.1
			c-35.3,0.1-79.1,0.3-102.5,0.4c-5.5,0-11.3-0.4-14.1,5.4c-3,6.3,2,9.7,6.1,13.7c59,57.9,72.4,122.5,39.5,193.2
			c-7.6,16.4-19.3,30.7-33,43.6c-4.1,3.9-8.7,7.6-5.4,13.7c3.3,6.1,9.7,5.3,15.7,5.2c6.2,0,50.6-0.2,93.8-0.3c9.2,0,18.3-0.1,27-0.1
			c31-0.1,56.5-0.1,59.4-0.1c7.6,0.1,12.8-2.3,17.8-6.9C614,308.1,573.6,168.7,559.3,148.1z M571.9,236c0.1,3.2-2.9,6-6,6
			c-0.1,0-0.2,0-0.3,0c-2.2,0-4.5,0-6.8,0c-4.8,0-9.5,0-14.3,0c-6.6,0-13.3,0-19.9,0c-7.8,0-15.6,0-23.5,0c-8.4,0-16.8,0-25.3,0
			c-8.3,0-16.7,0-25,0c-7.6,0-15.2,0-22.7,0c-6.2,0-12.5,0-18.7,0c-4.2,0-8.4,0-12.6,0c-1.6,0-3.1,0-4.7,0c-3.4,0-5.9-2.7-6-6
			c-0.1-3.2,2.9-6,6-6c0.1,0,0.2,0,0.3,0c2.2,0,4.5,0,6.8,0c4.8,0,9.5,0,14.3,0c6.6,0,13.3,0,19.9,0c7.8,0,15.6,0,23.5,0
			c8.4,0,16.8,0,25.3,0c8.3,0,16.7,0,25,0c7.6,0,15.2,0,22.7,0c6.2,0,12.5,0,18.7,0c4.2,0,8.4,0,12.6,0c1.6,0,3.1,0,4.7,0
			C569.3,230,571.8,232.8,571.9,236z M489,117c0.3-0.7,1-1.3,1.9-1.4c1.1-0.1,2.2,0.7,3.2,1.2c1.4,0.7,2.7,1.4,4.1,2.1
			c2.8,1.4,5.6,2.9,8.4,4.3c5.6,2.9,11.1,5.7,16.7,8.6c5.6,2.9,11.2,5.8,16.8,8.6c2.8,1.4,5.6,2.9,8.3,4.3c1.2,0.6,2.7,1.2,3.8,2
			c0.6,0.4,0.9,1.1,0.9,1.8c-0.1,0.7-0.5,1.3-1.2,1.6c-1.2,0.6-3.1,0.7-4.5,1.1c-3.5,0.8-7,1.6-10.5,2.3c-6.8,1.5-13.7,2.9-20.6,4
			c-4.4,0.7-8.9-0.6-12.4-3.1c-3.8-2.7-6-6.4-7.3-10.4c-1.7-5.4-3.3-10.8-4.9-16.2c-0.8-2.7-1.6-5.3-2.4-8
			C489.2,118.9,488.6,117.9,489,117z M389.2,196.6c0.1,0,0.2,0,0.3,0c2.2,0,4.5,0,6.8,0c4.8,0,9.5,0,14.3,0c6.6,0,13.3,0,19.9,0
			c7.8,0,15.6,0,23.5,0c8.4,0,16.8,0,25.3,0c8.3,0,16.7,0,25,0c7.6,0,15.2,0,22.7,0c6.2,0,12.5,0,18.7,0c4.2,0,8.4,0,12.6,0
			c1.6,0,3.1,0,4.7,0c3.4,0,5.9,2.7,6,6c0.1,3.2-2.9,6-6,6c-0.1,0-0.2,0-0.3,0c-2.2,0-4.5,0-6.8,0c-4.8,0-9.5,0-14.3,0
			c-6.6,0-13.3,0-19.9,0c-7.8,0-15.6,0-23.5,0c-8.4,0-16.8,0-25.3,0c-8.3,0-16.7,0-25,0c-7.6,0-15.2,0-22.7,0c-6.2,0-12.5,0-18.7,0
			c-4.2,0-8.4,0-12.6,0c-1.6,0-3.1,0-4.7,0c-3.4,0-5.9-2.7-6-6C383,199.3,386,196.6,389.2,196.6z M456.7,308.9c-2.8,0-5.5,0-8.3,0
			c-12.1,0-24.3,0-36.4,0c-7.6,0-15.2,0-22.8,0c-3.4,0-5.9-2.7-6-6c-0.1-3.2,2.9-6,6-6c2.8,0,5.5,0,8.3,0c12.1,0,24.3,0,36.4,0
			c7.6,0,15.2,0,22.8,0c3.4,0,5.9,2.7,6,6C462.9,306.2,459.9,308.9,456.7,308.9z M565.9,275.5c-0.1,0-0.2,0-0.3,0
			c-2.2,0-4.5,0-6.8,0c-4.8,0-9.5,0-14.3,0c-6.6,0-13.3,0-19.9,0c-7.8,0-15.6,0-23.5,0c-8.4,0-16.8,0-25.3,0c-8.3,0-16.7,0-25,0
			c-7.6,0-15.2,0-22.7,0c-6.2,0-12.5,0-18.7,0c-4.2,0-8.4,0-12.6,0c-1.6,0-3.1,0-4.7,0c-3.4,0-5.9-2.7-6-6c-0.1-3.2,2.9-6,6-6
			c0.1,0,0.2,0,0.3,0c2.2,0,4.5,0,6.8,0c4.8,0,9.5,0,14.3,0c6.6,0,13.3,0,19.9,0c7.8,0,15.6,0,23.5,0c8.4,0,16.8,0,25.3,0
			c8.3,0,16.7,0,25,0c7.6,0,15.2,0,22.7,0c6.2,0,12.5,0,18.7,0c4.2,0,8.4,0,12.6,0c1.6,0,3.1,0,4.7,0c3.4,0,5.9,2.7,6,6
			C572.1,272.7,569.1,275.5,565.9,275.5z"/>
	</g>
	<g>
		<g>
			<path class="st1" d="M347.5,429.9c-23.4-0.6-42.2,17.9-42.6,42c-0.4,23.6,17.5,42.5,40.6,43c22.8,0.5,42-18.4,42.3-41.5
				C388,449.7,370.2,430.4,347.5,429.9z M345.9,495.4c-12.6-0.3-22.2-10.5-22-23.3c0.2-13.1,10.4-23.1,23.1-22.8
				c12.3,0.3,22,10.8,21.9,23.6C368.7,485.5,358.3,495.7,345.9,495.4z"/>
			<path class="st1" d="M449.5,429.9c-23.4-0.6-42.2,17.9-42.6,42c-0.4,23.6,17.5,42.5,40.6,43c22.8,0.5,42-18.4,42.3-41.5
				C490,449.7,472.1,430.4,449.5,429.9z M447.9,495.4c-12.6-0.3-22.2-10.5-22-23.3c0.2-13.1,10.4-23.1,23.1-22.8
				c12.3,0.3,22,10.8,21.9,23.6C470.7,485.5,460.3,495.7,447.9,495.4z"/>
			<path class="st1" d="M554,429.9c-23.4-0.6-42.2,17.9-42.6,42c-0.4,23.6,17.5,42.5,40.6,43c22.8,0.5,42-18.4,42.3-41.5
				C594.5,449.7,576.6,430.4,554,429.9z M552.4,495.4c-12.6-0.3-22.2-10.5-22-23.3c0.2-13.1,10.4-23.1,23.1-22.8
				c12.3,0.3,22,10.8,21.9,23.6C575.2,485.5,564.8,495.7,552.4,495.4z"/>
		</g>
	</g>
	<path class="st1" d="M660.8,293.4c8.4,0.4,29.9,9.4,33.4,7.6c4.5-2.3,10.9-4.6,9.9-10.3c-0.8-4.8-0.1-13.2-5.5-13.5
		c-14.7-0.9-29-12.2-39.5-21.1c-9.2-8-14.4-13.4-22.5-17.2c-4.7-2.2-9.2-4.9-14.5-5.6c-2.6-0.3-5.1,0-7.4,1.9
		c0.7,0.4,1.3,0.6,1.8,0.9c3.7,2.2,6,5.3,6.8,9.5c0.3,1.5-31.9,19.1-9,114.6c2.2,15.1,3.2,33.4,2.8,45.2c-0.2,5.4-0.3,11.4-0.9,16.9
		c-1.3,12.2-8.8,20-9.2,20.5c-4.5,5.3-5.8,9.8-3.8,16.8c7.5,26.4-6.9,54.2-32.3,64.2c-24.8,9.7-52.3-0.8-65.5-25.1
		c-1.4-2.5-1.5-6-5-7.1c-20.9,47.6-80.9,48.1-102.5-2.1c-5.2,13-11.8,23.1-22.5,29.9c-19.1,12.1-42.2,11.5-59.8-1.5
		c-18.1-13.3-26.2-37.6-19.8-59.4c1.2-4.2,2.5-7.9-0.3-12.3c-12.9-19.9-25.5-40-37.9-60.3c-3.4-5.5-5.5-5.5-9.2-0.4
		c-9.1,12.3-18.8,24.3-26.3,37.6c-15.8,27.9-25.8,56.2-23.4,85.4c0,0,0,0,0,0c-0.1-0.1-0.2-0.1-0.4-0.2c0.9,13.4,4.2,26.9,10.6,40.6
		c0,0,0,0,0,0c0,0,0,0,0,0.1c1.1,2.4,2.4,4.9,3.7,7.3c3.2,6.8,5.4,13.5,5.8,21.4c0.5,9.3,0,9.4,9.4,9.4c8.8,0,439.4-0.6,439.4-0.6
		c5.8-0.2,5.5-1.4,5.9-9.3c0.3-7,2.2-13,4.8-19c1.5-3.8,2.5-6.5,3.3-8.4c20.8-47.2,14.8-88,9.1-106.4c0,0,0,0,0,0
		c-0.1-0.2-0.1-0.3-0.2-0.5c0,0,0,0,0,0c-5.6-16.2-31-55.1-40.1-75.5c-5-12.9-9.1-26.1-12.8-39.6c-4.6-17.1,9.8-25.3,24.6-8.4
		c5.7,6.5,7.5,4.3,11.8,2c3.5-1.9,7.3-3.9,8.7-8.3C670.6,313.2,657.3,293.2,660.8,293.4z"/>
</g>
</svg>
