<svg width="32" height="32" viewBox="0 0 32 32" fill="none" xmlns="http://www.w3.org/2000/svg">
<path d="M14.8579 19.2785C14.8579 19.3671 14.8579 19.4619 14.8579 19.5504C14.8579 19.8033 14.8579 20.0562 14.8579 20.3092C14.8579 20.3218 14.8579 20.3281 14.8579 20.3408C14.8579 20.5621 14.9528 20.7897 15.1108 20.9414C15.2562 21.0869 15.5028 21.2007 15.7115 21.1944C16.1731 21.1754 16.5651 20.8213 16.5651 20.3408C16.5651 20.1637 16.5651 19.993 16.5651 19.816C16.5651 19.6326 16.5651 19.4556 16.5651 19.2722C16.015 19.2722 15.4396 19.2722 14.8579 19.2785Z" fill="#1F2636"/>
<path d="M16.5651 1.88445C16.5651 1.80225 16.5651 1.72638 16.5651 1.64418C16.5651 1.39127 16.5651 1.13836 16.5651 0.885445C16.5651 0.872799 16.5651 0.866476 16.5651 0.853831C16.5651 0.632532 16.4702 0.404911 16.3122 0.253164C16.1667 0.107739 15.9201 -0.00607159 15.7115 0.000251222C15.2499 0.0192197 14.8579 0.373297 14.8579 0.853831C14.8579 1.03087 14.8579 1.20159 14.8579 1.37862C14.8579 1.54934 14.8579 1.72006 14.8579 1.89077C15.4839 1.88445 16.0656 1.88445 16.5651 1.88445Z" fill="#1F2636"/>
<path d="M22.8342 4.24286C22.6191 3.93304 18.6342 1.8718 18.2293 1.87813C18.0902 1.87813 17.4577 1.88445 16.5721 1.88445C16.0724 1.88445 15.4905 1.89077 14.8643 1.89077C12.6314 1.8971 9.86096 1.90974 8.38084 1.91606C8.03295 1.91606 7.66608 1.89077 7.48898 2.2575C7.29922 2.65583 7.61548 2.87081 7.87482 3.12372C11.6067 6.78463 12.4543 10.8692 10.3733 15.3394C9.89259 16.3763 9.15253 17.2805 8.28596 18.0961C8.02662 18.3427 7.73566 18.5767 7.9444 18.9624C8.15313 19.3481 8.55795 19.2975 8.93747 19.2912C9.32964 19.2912 12.1381 19.2785 14.8706 19.2722C15.4525 19.2722 16.0281 19.2659 16.5784 19.2659C18.5393 19.2595 20.1522 19.2595 20.3357 19.2595C20.8164 19.2659 21.1453 19.1141 21.4616 18.8233C26.2941 14.3594 23.7387 5.54536 22.8342 4.24286ZM23.6312 9.80061C23.6375 10.0029 23.4477 10.18 23.2516 10.18C23.2453 10.18 23.239 10.18 23.2327 10.18C23.0935 10.18 22.948 10.18 22.8025 10.18C22.4989 10.18 22.2016 10.18 21.898 10.18C21.4806 10.18 21.0568 10.18 20.6393 10.18C20.1459 10.18 19.6525 10.18 19.1528 10.18C18.6215 10.18 18.0902 10.18 17.5525 10.18C17.0275 10.18 16.4962 10.18 15.9712 10.18C15.4905 10.18 15.0098 10.18 14.5354 10.18C14.1432 10.18 13.7447 10.18 13.3525 10.18C13.0869 10.18 12.8212 10.18 12.5555 10.18C12.4543 10.18 12.3595 10.18 12.2583 10.18C12.0432 10.18 11.8851 10.0093 11.8787 9.80061C11.8724 9.59828 12.0622 9.42124 12.2583 9.42124C12.2646 9.42124 12.2709 9.42124 12.2772 9.42124C12.4164 9.42124 12.5619 9.42124 12.7074 9.42124C13.011 9.42124 13.3083 9.42124 13.6119 9.42124C14.0293 9.42124 14.4531 9.42124 14.8706 9.42124C15.364 9.42124 15.8574 9.42124 16.3571 9.42124C16.8884 9.42124 17.4197 9.42124 17.9574 9.42124C18.4824 9.42124 19.0137 9.42124 19.5387 9.42124C20.0194 9.42124 20.5001 9.42124 20.9745 9.42124C21.3667 9.42124 21.7652 9.42124 22.1574 9.42124C22.423 9.42124 22.6887 9.42124 22.9543 9.42124C23.0556 9.42124 23.1504 9.42124 23.2516 9.42124C23.4667 9.42124 23.6248 9.59828 23.6312 9.80061ZM18.3875 2.27646C18.4065 2.2322 18.4507 2.19427 18.5077 2.18795C18.5772 2.18162 18.6468 2.23221 18.7101 2.26382C18.7986 2.30808 18.8809 2.35234 18.9694 2.3966C19.1465 2.48512 19.3236 2.57996 19.5007 2.66848C19.8549 2.85184 20.2028 3.02888 20.5571 3.21224C20.9113 3.3956 21.2655 3.57896 21.6197 3.756C21.7968 3.84452 21.9739 3.93936 22.1447 4.02788C22.2206 4.06582 22.3155 4.10376 22.3851 4.15434C22.423 4.17963 22.442 4.22389 22.442 4.26815C22.4357 4.31241 22.4104 4.35035 22.3661 4.36932C22.2902 4.40725 22.17 4.41357 22.0815 4.43887C21.8601 4.48945 21.6387 4.54003 21.4173 4.58429C20.9872 4.67913 20.5507 4.76765 20.1143 4.8372C19.836 4.88146 19.5513 4.79927 19.3299 4.6412C19.0896 4.47048 18.9504 4.23654 18.8682 3.98362C18.7607 3.64219 18.6595 3.30076 18.5583 2.95933C18.5077 2.78861 18.4571 2.62422 18.4065 2.4535C18.4001 2.3966 18.3622 2.33337 18.3875 2.27646ZM12.0748 7.30942C12.0811 7.30942 12.0875 7.30942 12.0938 7.30942C12.233 7.30942 12.3784 7.30942 12.5239 7.30942C12.8275 7.30942 13.1248 7.30942 13.4284 7.30942C13.8459 7.30942 14.2697 7.30942 14.6872 7.30942C15.1805 7.30942 15.6739 7.30942 16.1736 7.30942C16.7049 7.30942 17.2363 7.30942 17.7739 7.30942C18.2989 7.30942 18.8302 7.30942 19.3552 7.30942C19.836 7.30942 20.3167 7.30942 20.7911 7.30942C21.1833 7.30942 21.5818 7.30942 21.9739 7.30942C22.2396 7.30942 22.5052 7.30942 22.7709 7.30942C22.8721 7.30942 22.967 7.30942 23.0682 7.30942C23.2833 7.30942 23.4414 7.48014 23.4477 7.68879C23.454 7.89112 23.2643 8.06816 23.0682 8.06816C23.0619 8.06816 23.0556 8.06816 23.0492 8.06816C22.9101 8.06816 22.7646 8.06816 22.6191 8.06816C22.3155 8.06816 22.0182 8.06816 21.7146 8.06816C21.2971 8.06816 20.8733 8.06816 20.4559 8.06816C19.9625 8.06816 19.4691 8.06816 18.9694 8.06816C18.4381 8.06816 17.9068 8.06816 17.3691 8.06816C16.8441 8.06816 16.3128 8.06816 15.7878 8.06816C15.3071 8.06816 14.8263 8.06816 14.3519 8.06816C13.9598 8.06816 13.5613 8.06816 13.1691 8.06816C12.9034 8.06816 12.6378 8.06816 12.3721 8.06816C12.2709 8.06816 12.176 8.06816 12.0748 8.06816C11.8598 8.06816 11.7016 7.89744 11.6953 7.68879C11.6827 7.48014 11.8724 7.30942 12.0748 7.30942ZM16.3444 14.4099C16.1673 14.4099 15.9965 14.4099 15.8194 14.4099C15.054 14.4099 14.2824 14.4099 13.517 14.4099C13.0363 14.4099 12.5555 14.4099 12.0748 14.4099C11.8598 14.4099 11.7016 14.2392 11.6953 14.0306C11.689 13.8282 11.8787 13.6512 12.0748 13.6512C12.2519 13.6512 12.4227 13.6512 12.5998 13.6512C13.3652 13.6512 14.1369 13.6512 14.9022 13.6512C15.383 13.6512 15.8637 13.6512 16.3444 13.6512C16.5595 13.6512 16.7176 13.8219 16.7239 14.0306C16.7366 14.2392 16.5468 14.4099 16.3444 14.4099ZM23.2516 12.2981C23.2453 12.2981 23.239 12.2981 23.2327 12.2981C23.0935 12.2981 22.948 12.2981 22.8025 12.2981C22.4989 12.2981 22.2016 12.2981 21.898 12.2981C21.4806 12.2981 21.0568 12.2981 20.6393 12.2981C20.1459 12.2981 19.6525 12.2981 19.1528 12.2981C18.6215 12.2981 18.0902 12.2981 17.5525 12.2981C17.0275 12.2981 16.4962 12.2981 15.9712 12.2981C15.4905 12.2981 15.0098 12.2981 14.5354 12.2981C14.1432 12.2981 13.7447 12.2981 13.3525 12.2981C13.0869 12.2981 12.8212 12.2981 12.5555 12.2981C12.4543 12.2981 12.3595 12.2981 12.2583 12.2981C12.0432 12.2981 11.8851 12.1274 11.8787 11.9188C11.8724 11.7164 12.0622 11.5394 12.2583 11.5394C12.2646 11.5394 12.2709 11.5394 12.2772 11.5394C12.4164 11.5394 12.5619 11.5394 12.7074 11.5394C13.011 11.5394 13.3083 11.5394 13.6119 11.5394C14.0293 11.5394 14.4531 11.5394 14.8706 11.5394C15.364 11.5394 15.8574 11.5394 16.3571 11.5394C16.8884 11.5394 17.4197 11.5394 17.9574 11.5394C18.4824 11.5394 19.0137 11.5394 19.5387 11.5394C20.0194 11.5394 20.5001 11.5394 20.9745 11.5394C21.3667 11.5394 21.7652 11.5394 22.1574 11.5394C22.423 11.5394 22.6887 11.5394 22.9543 11.5394C23.0556 11.5394 23.1504 11.5394 23.2516 11.5394C23.4667 11.5394 23.6248 11.7101 23.6312 11.9188C23.6438 12.1211 23.454 12.2981 23.2516 12.2981Z" fill="#DF5538"/>
<path d="M9.43718 22.0605C7.95706 22.0225 6.7679 23.1923 6.7426 24.716C6.7173 26.2082 7.84953 27.4032 9.31068 27.4349C10.7528 27.4665 11.9673 26.2715 11.9863 24.8109C11.9989 23.3124 10.873 22.0921 9.43718 22.0605ZM9.33598 26.2019C8.53899 26.1829 7.93176 25.538 7.94441 24.7287C7.95706 23.9004 8.60224 23.2681 9.40556 23.2871C10.1836 23.3061 10.7971 23.97 10.7908 24.7793C10.7781 25.576 10.1203 26.2209 9.33598 26.2019Z" fill="#1F2636"/>
<path d="M15.8893 22.0605C14.4092 22.0225 13.2201 23.1923 13.1948 24.716C13.1695 26.2082 14.3017 27.4032 15.7628 27.4349C17.205 27.4665 18.4195 26.2715 18.4384 24.8109C18.4511 23.3124 17.3189 22.0921 15.8893 22.0605ZM15.7881 26.2019C14.9911 26.1829 14.3839 25.538 14.3966 24.7287C14.4092 23.9004 15.0544 23.2681 15.8577 23.2871C16.6357 23.3061 17.2493 23.97 17.2429 24.7793C17.2303 25.576 16.5725 26.2209 15.7881 26.2019Z" fill="#1F2636"/>
<path d="M22.4992 22.0605C21.0191 22.0225 19.8299 23.1923 19.8046 24.716C19.7793 26.2082 20.9115 27.4032 22.3727 27.4349C23.8149 27.4665 25.0293 26.2715 25.0483 24.8109C25.0609 23.3124 23.9287 22.0921 22.4992 22.0605ZM22.398 26.2019C21.601 26.1829 20.9938 25.538 21.0064 24.7287C21.0191 23.9004 21.6643 23.2681 22.4676 23.2871C23.2456 23.3061 23.8591 23.97 23.8528 24.7793C23.8402 25.576 23.1823 26.2209 22.398 26.2019Z" fill="#1F2636"/>
<path d="M29.2545 13.4299C29.7859 13.4552 31.1458 14.0243 31.3672 13.9104C31.6518 13.765 32.0566 13.6196 31.9934 13.2592C31.9428 12.9557 31.9871 12.4246 31.6455 12.4056C30.7157 12.3487 29.8112 11.6342 29.147 11.0715C28.5651 10.5657 28.2362 10.2242 27.7238 9.98397C27.4265 9.84487 27.1419 9.67416 26.8066 9.6299C26.6422 9.61093 26.4841 9.6299 26.3386 9.75003C26.3829 9.77532 26.4208 9.78797 26.4524 9.80694C26.6865 9.94604 26.8319 10.142 26.8826 10.4076C26.9015 10.5024 24.8648 11.6153 26.3133 17.6535C26.4524 18.6083 26.5157 19.7654 26.4904 20.5115C26.4777 20.8529 26.4714 21.2323 26.4335 21.58C26.3512 22.3514 25.8768 22.8446 25.8515 22.8762C25.5669 23.2113 25.4847 23.4958 25.6112 23.9384C26.0856 25.6076 25.1747 27.3654 23.5681 27.9977C21.9994 28.611 20.26 27.9471 19.425 26.4106C19.3365 26.2526 19.3301 26.0313 19.1087 25.9617C17.7868 28.9714 13.9916 29.003 12.6253 25.8289C12.2964 26.6509 11.8789 27.2895 11.2021 27.7195C9.99398 28.4845 8.53284 28.4466 7.41958 27.6246C6.2747 26.7837 5.76235 25.2472 6.16717 23.8689C6.24308 23.6033 6.32531 23.3694 6.1482 23.0912C5.33223 21.8329 4.53524 20.562 3.75091 19.2785C3.53585 18.9308 3.40301 18.9308 3.16898 19.2532C2.59337 20.0309 1.97982 20.7897 1.50542 21.6306C0.506025 23.3947 -0.126507 25.184 0.0253008 27.0303C0.0189755 27.024 0.0126506 27.024 0 27.0176C0.0569278 27.8649 0.265662 28.7185 0.670482 29.5847C0.670482 29.5847 0.670482 29.5847 0.670482 29.591C0.74006 29.7428 0.82229 29.9008 0.904519 30.0526C1.10693 30.4825 1.24608 30.9062 1.27139 31.4057C1.30301 31.9937 1.27139 32 1.86597 32C2.42259 32 29.6594 31.9621 29.6594 31.9621C30.0262 31.9494 30.0073 31.8735 30.0326 31.374C30.0515 30.9314 30.1717 30.5521 30.3362 30.1727C30.431 29.9324 30.4943 29.7617 30.5449 29.6416C31.8606 26.6572 31.481 24.0775 31.1205 22.9141C31.1142 22.9015 31.1142 22.8952 31.1079 22.8825C30.7536 21.8582 29.147 19.3986 28.5714 18.1088C28.2551 17.2931 27.9958 16.4585 27.7618 15.605C27.4708 14.5238 28.3816 14.0053 29.3178 15.0738C29.6783 15.4848 29.7922 15.3457 30.0642 15.2003C30.2856 15.0802 30.5259 14.9537 30.6145 14.6755C29.8744 14.6818 29.0332 13.4173 29.2545 13.4299Z" fill="#1F2636"/>
</svg>
