<svg width="24" height="24" viewBox="0 0 24 24" fill="none" xmlns="http://www.w3.org/2000/svg">
<g clip-path="url(#clip0_797_1903)">
<path fill-rule="evenodd" clip-rule="evenodd" d="M6.609 2.013C8.10822 0.720203 10.0204 0.00620777 12 0C16.035 0 19.3845 3 19.749 6.8685C22.137 7.206 24 9.2055 24 11.6595C24 14.3535 21.753 16.5 19.0305 16.5H15C14.8011 16.5 14.6103 16.421 14.4697 16.2803C14.329 16.1397 14.25 15.9489 14.25 15.75C14.25 15.5511 14.329 15.3603 14.4697 15.2197C14.6103 15.079 14.8011 15 15 15H19.032C20.9685 15 22.5 13.482 22.5 11.6595C22.5 9.8355 20.97 8.3175 19.0305 8.3175H18.2805V7.5675C18.282 4.2375 15.492 1.5 12 1.5C10.3798 1.50647 8.81526 2.09165 7.5885 3.15C6.453 4.128 5.859 5.307 5.859 6.2325V6.9045L5.1915 6.978C3.096 7.2075 1.5 8.928 1.5 10.977C1.5 13.1775 3.345 15 5.6715 15H9C9.19891 15 9.38968 15.079 9.53033 15.2197C9.67098 15.3603 9.75 15.5511 9.75 15.75C9.75 15.9489 9.67098 16.1397 9.53033 16.2803C9.38968 16.421 9.19891 16.5 9 16.5H5.6715C2.562 16.5 0 14.049 0 10.977C0 8.3325 1.899 6.1425 4.413 5.5875C4.6275 4.293 5.46 3.003 6.609 2.013Z" fill="#DF5538"/>
<path fill-rule="evenodd" clip-rule="evenodd" d="M11.469 6.21888C11.5386 6.14903 11.6214 6.09362 11.7125 6.05581C11.8036 6.018 11.9013 5.99854 12 5.99854C12.0986 5.99854 12.1963 6.018 12.2874 6.05581C12.3785 6.09362 12.4613 6.14903 12.531 6.21888L17.031 10.7189C17.1718 10.8597 17.2509 11.0507 17.2509 11.2499C17.2509 11.449 17.1718 11.64 17.031 11.7809C16.8901 11.9217 16.6991 12.0008 16.5 12.0008C16.3008 12.0008 16.1098 11.9217 15.969 11.7809L12.75 8.56038V21.7499C12.75 21.9488 12.671 22.1396 12.5303 22.2802C12.3896 22.4209 12.1989 22.4999 12 22.4999C11.8011 22.4999 11.6103 22.4209 11.4696 22.2802C11.329 22.1396 11.25 21.9488 11.25 21.7499V8.56038L8.03097 11.7809C7.89014 11.9217 7.69913 12.0008 7.49997 12.0008C7.30081 12.0008 7.1098 11.9217 6.96897 11.7809C6.82814 11.64 6.74902 11.449 6.74902 11.2499C6.74902 11.0507 6.82814 10.8597 6.96897 10.7189L11.469 6.21888Z" fill="#DF5538"/>
</g>
<defs>
<clipPath id="clip0_797_1903">
<rect width="24" height="24" fill="white"/>
</clipPath>
</defs>
</svg>
