<svg width="507" height="507" viewBox="0 0 507 507" fill="none" xmlns="http://www.w3.org/2000/svg">
<path d="M242.4 486.1C243.4 487.2 244.4 488.3 245.5 489.3C244.5 488.2 243.5 486.9 242.6 485.6C242.5 485.8 242.5 485.9 242.4 486.1Z" fill="white"/>
<path d="M235.2 304.9C235.2 306.3 235.2 307.8 235.2 309.2C235.2 313.2 235.2 317.2 235.2 321.2C235.2 321.4 235.2 321.5 235.2 321.7C235.2 325.2 236.7 328.8 239.2 331.2C241.5 333.5 245.4 335.3 248.7 335.2C256 334.9 262.2 329.3 262.2 321.7C262.2 318.9 262.2 316.2 262.2 313.4C262.2 310.5 262.2 307.7 262.2 304.8C253.5 304.8 244.4 304.8 235.2 304.9Z" fill="white"/>
<path d="M262.2 29.8C262.2 28.5 262.2 27.3 262.2 26C262.2 22 262.2 18 262.2 14C262.2 13.8 262.2 13.7 262.2 13.5C262.2 10 260.7 6.40001 258.2 4.00001C255.9 1.70001 252 -0.099994 248.7 5.97583e-06C241.4 0.300006 235.2 5.90001 235.2 13.5C235.2 16.3 235.2 19 235.2 21.8C235.2 24.5 235.2 27.2 235.2 29.9C245.1 29.8 254.3 29.8 262.2 29.8Z" fill="white"/>
<path d="M361.3 67.1C357.9 62.2 294.9 29.6 288.5 29.7C286.3 29.7 276.3 29.8 262.3 29.8C254.4 29.8 245.2 29.9 235.3 29.9C200 30 156.2 30.2 132.8 30.3C127.3 30.3 121.5 29.9 118.7 35.7C115.7 42 120.7 45.4 124.8 49.4C183.8 107.3 197.2 171.9 164.3 242.6C156.7 259 145 273.3 131.3 286.2C127.2 290.1 122.6 293.8 125.9 299.9C129.2 306 135.6 305.2 141.6 305.1C147.8 305.1 192.2 304.9 235.4 304.8C244.6 304.8 253.7 304.7 262.4 304.7C293.4 304.6 318.9 304.6 321.8 304.6C329.4 304.7 334.6 302.3 339.6 297.7C416 227.1 375.6 87.7 361.3 67.1ZM373.9 155C374 158.2 371 161 367.9 161C367.8 161 367.7 161 367.6 161C365.4 161 363.1 161 360.8 161C356 161 351.3 161 346.5 161C339.9 161 333.2 161 326.6 161C318.8 161 311 161 303.1 161C294.7 161 286.3 161 277.8 161C269.5 161 261.1 161 252.8 161C245.2 161 237.6 161 230.1 161C223.9 161 217.6 161 211.4 161C207.2 161 203 161 198.8 161C197.2 161 195.7 161 194.1 161C190.7 161 188.2 158.3 188.1 155C188 151.8 191 149 194.1 149C194.2 149 194.3 149 194.4 149C196.6 149 198.9 149 201.2 149C206 149 210.7 149 215.5 149C222.1 149 228.8 149 235.4 149C243.2 149 251 149 258.9 149C267.3 149 275.7 149 284.2 149C292.5 149 300.9 149 309.2 149C316.8 149 324.4 149 331.9 149C338.1 149 344.4 149 350.6 149C354.8 149 359 149 363.2 149C364.8 149 366.3 149 367.9 149C371.3 149 373.8 151.8 373.9 155ZM291 36C291.3 35.3 292 34.7 292.9 34.6C294 34.5 295.1 35.3 296.1 35.8C297.5 36.5 298.8 37.2 300.2 37.9C303 39.3 305.8 40.8 308.6 42.2C314.2 45.1 319.7 47.9 325.3 50.8C330.9 53.7 336.5 56.6 342.1 59.4C344.9 60.8 347.7 62.3 350.4 63.7C351.6 64.3 353.1 64.9 354.2 65.7C354.8 66.1 355.1 66.8 355.1 67.5C355 68.2 354.6 68.8 353.9 69.1C352.7 69.7 350.8 69.8 349.4 70.2C345.9 71 342.4 71.8 338.9 72.5C332.1 74 325.2 75.4 318.3 76.5C313.9 77.2 309.4 75.9 305.9 73.4C302.1 70.7 299.9 67 298.6 63C296.9 57.6 295.3 52.2 293.7 46.8C292.9 44.1 292.1 41.5 291.3 38.8C291.2 37.9 290.6 36.9 291 36ZM191.2 115.6C191.3 115.6 191.4 115.6 191.5 115.6C193.7 115.6 196 115.6 198.3 115.6C203.1 115.6 207.8 115.6 212.6 115.6C219.2 115.6 225.9 115.6 232.5 115.6C240.3 115.6 248.1 115.6 256 115.6C264.4 115.6 272.8 115.6 281.3 115.6C289.6 115.6 298 115.6 306.3 115.6C313.9 115.6 321.5 115.6 329 115.6C335.2 115.6 341.5 115.6 347.7 115.6C351.9 115.6 356.1 115.6 360.3 115.6C361.9 115.6 363.4 115.6 365 115.6C368.4 115.6 370.9 118.3 371 121.6C371.1 124.8 368.1 127.6 365 127.6C364.9 127.6 364.8 127.6 364.7 127.6C362.5 127.6 360.2 127.6 357.9 127.6C353.1 127.6 348.4 127.6 343.6 127.6C337 127.6 330.3 127.6 323.7 127.6C315.9 127.6 308.1 127.6 300.2 127.6C291.8 127.6 283.4 127.6 274.9 127.6C266.6 127.6 258.2 127.6 249.9 127.6C242.3 127.6 234.7 127.6 227.2 127.6C221 127.6 214.7 127.6 208.5 127.6C204.3 127.6 200.1 127.6 195.9 127.6C194.3 127.6 192.8 127.6 191.2 127.6C187.8 127.6 185.3 124.9 185.2 121.6C185 118.3 188 115.6 191.2 115.6ZM258.7 227.9C255.9 227.9 253.2 227.9 250.4 227.9C238.3 227.9 226.1 227.9 214 227.9C206.4 227.9 198.8 227.9 191.2 227.9C187.8 227.9 185.3 225.2 185.2 221.9C185.1 218.7 188.1 215.9 191.2 215.9C194 215.9 196.7 215.9 199.5 215.9C211.6 215.9 223.8 215.9 235.9 215.9C243.5 215.9 251.1 215.9 258.7 215.9C262.1 215.9 264.6 218.6 264.7 221.9C264.9 225.2 261.9 227.9 258.7 227.9ZM367.9 194.5C367.8 194.5 367.7 194.5 367.6 194.5C365.4 194.5 363.1 194.5 360.8 194.5C356 194.5 351.3 194.5 346.5 194.5C339.9 194.5 333.2 194.5 326.6 194.5C318.8 194.5 311 194.5 303.1 194.5C294.7 194.5 286.3 194.5 277.8 194.5C269.5 194.5 261.1 194.5 252.8 194.5C245.2 194.5 237.6 194.5 230.1 194.5C223.9 194.5 217.6 194.5 211.4 194.5C207.2 194.5 203 194.5 198.8 194.5C197.2 194.5 195.7 194.5 194.1 194.5C190.7 194.5 188.2 191.8 188.1 188.5C188 185.3 191 182.5 194.1 182.5C194.2 182.5 194.3 182.5 194.4 182.5C196.6 182.5 198.9 182.5 201.2 182.5C206 182.5 210.7 182.5 215.5 182.5C222.1 182.5 228.8 182.5 235.4 182.5C243.2 182.5 251 182.5 258.9 182.5C267.3 182.5 275.7 182.5 284.2 182.5C292.5 182.5 300.9 182.5 309.2 182.5C316.8 182.5 324.4 182.5 331.9 182.5C338.1 182.5 344.4 182.5 350.6 182.5C354.8 182.5 359 182.5 363.2 182.5C364.8 182.5 366.3 182.5 367.9 182.5C371.3 182.5 373.8 185.2 373.9 188.5C374.1 191.7 371.1 194.5 367.9 194.5Z" fill="white"/>
<path d="M149.5 348.9C126.1 348.3 107.3 366.8 106.9 390.9C106.5 414.5 124.4 433.4 147.5 433.9C170.3 434.4 189.5 415.5 189.8 392.4C190 368.7 172.2 349.4 149.5 348.9ZM147.9 414.4C135.3 414.1 125.7 403.9 125.9 391.1C126.1 378 136.3 368 149 368.3C161.3 368.6 171 379.1 170.9 391.9C170.7 404.5 160.3 414.7 147.9 414.4Z" fill="white"/>
<path d="M251.5 348.9C228.1 348.3 209.3 366.8 208.9 390.9C208.5 414.5 226.4 433.4 249.5 433.9C272.3 434.4 291.5 415.5 291.8 392.4C292 368.7 274.1 349.4 251.5 348.9ZM249.9 414.4C237.3 414.1 227.7 403.9 227.9 391.1C228.1 378 238.3 368 251 368.3C263.3 368.6 273 379.1 272.9 391.9C272.7 404.5 262.3 414.7 249.9 414.4Z" fill="white"/>
<path d="M356 348.9C332.6 348.3 313.8 366.8 313.4 390.9C313 414.5 330.9 433.4 354 433.9C376.8 434.4 396 415.5 396.3 392.4C396.5 368.7 378.6 349.4 356 348.9ZM354.4 414.4C341.8 414.1 332.2 403.9 332.4 391.1C332.6 378 342.8 368 355.5 368.3C367.8 368.6 377.5 379.1 377.4 391.9C377.2 404.5 366.8 414.7 354.4 414.4Z" fill="white"/>
<path d="M462.8 212.4C471.2 212.8 492.7 221.8 496.2 220C500.7 217.7 507.1 215.4 506.1 209.7C505.3 204.9 506 196.5 500.6 196.2C485.9 195.3 471.6 184 461.1 175.1C451.9 167.1 446.7 161.7 438.6 157.9C433.9 155.7 429.4 153 424.1 152.3C421.5 152 419 152.3 416.7 154.2C417.4 154.6 418 154.8 418.5 155.1C422.2 157.3 424.5 160.4 425.3 164.6C425.6 166.1 393.4 183.7 416.3 279.2C418.5 294.3 419.5 312.6 419.1 324.4C418.9 329.8 418.8 335.8 418.2 341.3C416.9 353.5 409.4 361.3 409 361.8C404.5 367.1 403.2 371.6 405.2 378.6C412.7 405 398.3 432.8 372.9 442.8C348.1 452.5 320.6 442 307.4 417.7C306 415.2 305.9 411.7 302.4 410.6C281.5 458.2 221.5 458.7 199.9 408.5C194.7 421.5 188.1 431.6 177.4 438.4C158.3 450.5 135.2 449.9 117.6 436.9C99.5 423.6 91.4 399.3 97.8 377.5C99 373.3 100.3 369.6 97.5 365.2C84.6 345.3 72 325.2 59.6 304.9C56.2 299.4 54.1 299.4 50.4 304.5C41.3 316.8 31.6 328.8 24.1 342.1C8.29999 370 -1.70002 398.3 0.699982 427.5C0.599982 427.4 0.499988 427.4 0.299988 427.3C1.19999 440.7 4.49998 454.2 10.9 467.9C10.9 467.9 10.9 467.9 10.9 468C12 470.4 13.3 472.9 14.6 475.3C17.8 482.1 20 488.8 20.4 496.7C20.9 506 20.4 506.1 29.8 506.1C38.6 506.1 469.2 505.5 469.2 505.5C475 505.3 474.7 504.1 475.1 496.2C475.4 489.2 477.3 483.2 479.9 477.2C481.4 473.4 482.4 470.7 483.2 468.8C504 421.6 498 380.8 492.3 362.4C492.2 362.2 492.2 362.1 492.1 361.9C486.5 345.7 461.1 306.8 452 286.4C447 273.5 442.9 260.3 439.2 246.8C434.6 229.7 449 221.5 463.8 238.4C469.5 244.9 471.3 242.7 475.6 240.4C479.1 238.5 482.9 236.5 484.3 232.1C472.6 232.2 459.3 212.2 462.8 212.4Z" fill="white"/>
</svg>
