<?xml version="1.0" encoding="utf-8"?>
<!-- Generator: Adobe Illustrator 27.9.0, SVG Export Plug-In . SVG Version: 6.00 Build 0)  -->
<svg version="1.1" id="Layer_1" xmlns="http://www.w3.org/2000/svg"
	xmlns:xlink="http://www.w3.org/1999/xlink" x="0px" y="0px"
	viewBox="0 0 916 774" style="enable-background:new 0 0 916 774;" xml:space="preserve">
<style type="text/css">
	.st0{display:none;fill:#333335;}
	.st1{fill:none;}
	.st2{fill:#1F2636;}
	.st3{fill:#DF5538;}
</style>
<g>
	<path class="st1" d="M440.4,620.1c1,1.1,2,2.2,3.1,3.2c-1-1.1-2-2.4-2.9-3.7C440.5,619.8,440.5,620,440.4,620.1z"/>
	<g>
		<path class="st1" d="M491.8,180.8c1.6,5.4,3.2,10.8,4.9,16.2c1.3,4,3.5,7.7,7.3,10.4c3.5,2.5,7.9,3.8,12.4,3.1
			c6.9-1.1,13.8-2.5,20.6-4c3.5-0.8,7-1.5,10.5-2.3c1.4-0.3,3.2-0.5,4.5-1.1c0.7-0.3,1.1-0.9,1.2-1.6c0.1-0.7-0.3-1.3-0.9-1.8
			c-1.1-0.8-2.6-1.4-3.8-2c-2.8-1.4-5.6-2.9-8.3-4.3c-5.6-2.9-11.2-5.8-16.8-8.6c-5.6-2.9-11.1-5.7-16.7-8.6
			c-2.8-1.4-5.6-2.9-8.4-4.3c-1.4-0.7-2.7-1.4-4.1-2.1c-0.9-0.5-2-1.3-3.2-1.2c-0.9,0.1-1.6,0.6-1.9,1.4c-0.3,0.9,0.2,2,0.5,2.9
			C490.2,175.5,491,178.2,491.8,180.8z"/>
		<path class="st2" d="M433.2,438.9c0,1.4,0,2.9,0,4.3c0,4,0,8,0,12c0,0.2,0,0.3,0,0.5c0,3.5,1.5,7.1,4,9.5c2.3,2.3,6.2,4.1,9.5,4
			c7.3-0.3,13.5-5.9,13.5-13.5c0-2.8,0-5.5,0-8.3c0-2.9,0-5.7,0-8.6C451.5,438.9,442.4,438.9,433.2,438.9z"/>
		<path class="st2" d="M460.2,163.8c0-1.3,0-2.5,0-3.8c0-4,0-8,0-12c0-0.2,0-0.3,0-0.5c0-3.5-1.5-7.1-4-9.5c-2.3-2.3-6.2-4.1-9.5-4
			c-7.3,0.3-13.5,5.9-13.5,13.5c0,2.8,0,5.5,0,8.3c0,2.7,0,5.4,0,8.1C443.1,163.9,452.3,163.9,460.2,163.8z"/>
		<path class="st3" d="M559.3,201.2c-3.4-4.9-66.4-37.5-72.8-37.4c-2.2,0-12.2,0.1-26.2,0.1c-7.9,0-17.1,0.1-27,0.1
			c-35.3,0.1-79.1,0.3-102.5,0.4c-5.5,0-11.3-0.4-14.1,5.4c-3,6.3,2,9.7,6.1,13.7c59,57.9,72.4,122.5,39.5,193.2
			c-7.6,16.4-19.3,30.7-33,43.6c-4.1,3.9-8.7,7.6-5.4,13.7c3.3,6.1,9.7,5.3,15.7,5.2c6.2,0,50.6-0.2,93.8-0.3c9.2,0,18.3-0.1,27-0.1
			c31-0.1,56.5-0.1,59.4-0.1c7.6,0.1,12.8-2.3,17.8-6.9C614,361.2,573.6,221.7,559.3,201.2z M571.9,289.1c0.1,3.2-2.9,6-6,6
			c-0.1,0-0.2,0-0.3,0c-2.2,0-4.5,0-6.8,0c-4.8,0-9.5,0-14.3,0c-6.6,0-13.3,0-19.9,0c-7.8,0-15.6,0-23.5,0c-8.4,0-16.8,0-25.3,0
			c-8.3,0-16.7,0-25,0c-7.6,0-15.2,0-22.7,0c-6.2,0-12.5,0-18.7,0c-4.2,0-8.4,0-12.6,0c-1.6,0-3.1,0-4.7,0c-3.4,0-5.9-2.7-6-6
			c-0.1-3.2,2.9-6,6-6c0.1,0,0.2,0,0.3,0c2.2,0,4.5,0,6.8,0c4.8,0,9.5,0,14.3,0c6.6,0,13.3,0,19.9,0c7.8,0,15.6,0,23.5,0
			c8.4,0,16.8,0,25.3,0c8.3,0,16.7,0,25,0c7.6,0,15.2,0,22.7,0c6.2,0,12.5,0,18.7,0c4.2,0,8.4,0,12.6,0c1.6,0,3.1,0,4.7,0
			C569.3,283.1,571.8,285.9,571.9,289.1z M489,170c0.3-0.7,1-1.3,1.9-1.4c1.1-0.1,2.2,0.7,3.2,1.2c1.4,0.7,2.7,1.4,4.1,2.1
			c2.8,1.4,5.6,2.9,8.4,4.3c5.6,2.9,11.1,5.7,16.7,8.6c5.6,2.9,11.2,5.8,16.8,8.6c2.8,1.4,5.6,2.9,8.3,4.3c1.2,0.6,2.7,1.2,3.8,2
			c0.6,0.4,0.9,1.1,0.9,1.8c-0.1,0.7-0.5,1.3-1.2,1.6c-1.2,0.6-3.1,0.7-4.5,1.1c-3.5,0.8-7,1.6-10.5,2.3c-6.8,1.5-13.7,2.9-20.6,4
			c-4.4,0.7-8.9-0.6-12.4-3.1c-3.8-2.7-6-6.4-7.3-10.4c-1.7-5.4-3.3-10.8-4.9-16.2c-0.8-2.7-1.6-5.3-2.4-8
			C489.2,172,488.6,170.9,489,170z M389.2,249.7c0.1,0,0.2,0,0.3,0c2.2,0,4.5,0,6.8,0c4.8,0,9.5,0,14.3,0c6.6,0,13.3,0,19.9,0
			c7.8,0,15.6,0,23.5,0c8.4,0,16.8,0,25.3,0c8.3,0,16.7,0,25,0c7.6,0,15.2,0,22.7,0c6.2,0,12.5,0,18.7,0c4.2,0,8.4,0,12.6,0
			c1.6,0,3.1,0,4.7,0c3.4,0,5.9,2.7,6,6c0.1,3.2-2.9,6-6,6c-0.1,0-0.2,0-0.3,0c-2.2,0-4.5,0-6.8,0c-4.8,0-9.5,0-14.3,0
			c-6.6,0-13.3,0-19.9,0c-7.8,0-15.6,0-23.5,0c-8.4,0-16.8,0-25.3,0c-8.3,0-16.7,0-25,0c-7.6,0-15.2,0-22.7,0c-6.2,0-12.5,0-18.7,0
			c-4.2,0-8.4,0-12.6,0c-1.6,0-3.1,0-4.7,0c-3.4,0-5.9-2.7-6-6C383,252.4,386,249.7,389.2,249.7z M456.7,362c-2.8,0-5.5,0-8.3,0
			c-12.1,0-24.3,0-36.4,0c-7.6,0-15.2,0-22.8,0c-3.4,0-5.9-2.7-6-6c-0.1-3.2,2.9-6,6-6c2.8,0,5.5,0,8.3,0c12.1,0,24.3,0,36.4,0
			c7.6,0,15.2,0,22.8,0c3.4,0,5.9,2.7,6,6C462.9,359.3,459.9,362,456.7,362z M565.9,328.6c-0.1,0-0.2,0-0.3,0c-2.2,0-4.5,0-6.8,0
			c-4.8,0-9.5,0-14.3,0c-6.6,0-13.3,0-19.9,0c-7.8,0-15.6,0-23.5,0c-8.4,0-16.8,0-25.3,0c-8.3,0-16.7,0-25,0c-7.6,0-15.2,0-22.7,0
			c-6.2,0-12.5,0-18.7,0c-4.2,0-8.4,0-12.6,0c-1.6,0-3.1,0-4.7,0c-3.4,0-5.9-2.7-6-6c-0.1-3.2,2.9-6,6-6c0.1,0,0.2,0,0.3,0
			c2.2,0,4.5,0,6.8,0c4.8,0,9.5,0,14.3,0c6.6,0,13.3,0,19.9,0c7.8,0,15.6,0,23.5,0c8.4,0,16.8,0,25.3,0c8.3,0,16.7,0,25,0
			c7.6,0,15.2,0,22.7,0c6.2,0,12.5,0,18.7,0c4.2,0,8.4,0,12.6,0c1.6,0,3.1,0,4.7,0c3.4,0,5.9,2.7,6,6
			C572.1,325.8,569.1,328.6,565.9,328.6z"/>
	</g>
	<g>
		<g>
			<path class="st2" d="M347.5,482.9c-23.4-0.6-42.2,17.9-42.6,42c-0.4,23.6,17.5,42.5,40.6,43c22.8,0.5,42-18.4,42.3-41.5
				C388,502.8,370.2,483.5,347.5,482.9z M345.9,548.5c-12.6-0.3-22.2-10.5-22-23.3c0.2-13.1,10.4-23.1,23.1-22.8
				c12.3,0.3,22,10.8,21.9,23.6C368.7,538.5,358.3,548.8,345.9,548.5z"/>
			<path class="st2" d="M449.5,482.9c-23.4-0.6-42.2,17.9-42.6,42c-0.4,23.6,17.5,42.5,40.6,43c22.8,0.5,42-18.4,42.3-41.5
				C490,502.8,472.1,483.5,449.5,482.9z M447.9,548.5c-12.6-0.3-22.2-10.5-22-23.3c0.2-13.1,10.4-23.1,23.1-22.8
				c12.3,0.3,22,10.8,21.9,23.6C470.7,538.5,460.3,548.8,447.9,548.5z"/>
			<path class="st2" d="M554,482.9c-23.4-0.6-42.2,17.9-42.6,42c-0.4,23.6,17.5,42.5,40.6,43c22.8,0.5,42-18.4,42.3-41.5
				C594.5,502.8,576.6,483.5,554,482.9z M552.4,548.5c-12.6-0.3-22.2-10.5-22-23.3c0.2-13.1,10.4-23.1,23.1-22.8
				c12.3,0.3,22,10.8,21.9,23.6C575.2,538.5,564.8,548.8,552.4,548.5z"/>
		</g>
	</g>
	<path class="st2" d="M660.8,346.5c8.4,0.4,29.9,9.4,33.4,7.6c4.5-2.3,10.9-4.6,9.9-10.3c-0.8-4.8-0.1-13.2-5.5-13.5
		c-14.7-0.9-29-12.2-39.5-21.1c-9.2-8-14.4-13.4-22.5-17.2c-4.7-2.2-9.2-4.9-14.5-5.6c-2.6-0.3-5.1,0-7.4,1.9
		c0.7,0.4,1.3,0.6,1.8,0.9c3.7,2.2,6,5.3,6.8,9.5c0.3,1.5-31.9,19.1-9,114.6c2.2,15.1,3.2,33.4,2.8,45.2c-0.2,5.4-0.3,11.4-0.9,16.9
		c-1.3,12.2-8.8,20-9.2,20.5c-4.5,5.3-5.8,9.8-3.8,16.8c7.5,26.4-6.9,54.2-32.3,64.2c-24.8,9.7-52.3-0.8-65.5-25.1
		c-1.4-2.5-1.5-6-5-7.1c-20.9,47.6-80.9,48.1-102.5-2.1c-5.2,13-11.8,23.1-22.5,29.9c-19.1,12.1-42.2,11.5-59.8-1.5
		c-18.1-13.3-26.2-37.6-19.8-59.4c1.2-4.2,2.5-7.9-0.3-12.3c-12.9-19.9-25.5-40-37.9-60.3c-3.4-5.5-5.5-5.5-9.2-0.4
		c-9.1,12.3-18.8,24.3-26.3,37.6c-15.8,27.9-25.8,56.2-23.4,85.4c0,0,0,0,0,0c-0.1-0.1-0.2-0.1-0.4-0.2c0.9,13.4,4.2,26.9,10.6,40.6
		c0,0,0,0,0,0c0,0,0,0,0,0.1c1.1,2.4,2.4,4.9,3.7,7.3c3.2,6.8,5.4,13.5,5.8,21.4c0.5,9.3,0,9.4,9.4,9.4c8.8,0,439.4-0.6,439.4-0.6
		c5.8-0.2,5.5-1.4,5.9-9.3c0.3-7,2.2-13,4.8-19c1.5-3.8,2.5-6.5,3.3-8.4c20.8-47.2,14.8-88,9.1-106.4c0,0,0,0,0,0
		c-0.1-0.2-0.1-0.3-0.2-0.5c0,0,0,0,0,0c-5.6-16.2-31-55.1-40.1-75.5c-5-12.9-9.1-26.1-12.8-39.6c-4.6-17.1,9.8-25.3,24.6-8.4
		c5.7,6.5,7.5,4.3,11.8,2c3.5-1.9,7.3-3.9,8.7-8.3C670.6,366.3,657.3,346.3,660.8,346.5z"/>
</g>
</svg>
